<?xml version="1.0" encoding="UTF-8" standalone="no"?><!DOCTYPE svg PUBLIC "-//W3C//DTD SVG 1.1//EN" "http://www.w3.org/Graphics/SVG/1.1/DTD/svg11.dtd"><svg width="100%" height="100%" viewBox="0 0 270 270" version="1.1" xmlns="http://www.w3.org/2000/svg" xmlns:xlink="http://www.w3.org/1999/xlink" xml:space="preserve" xmlns:serif="http://www.serif.com/" style="fill-rule:evenodd;clip-rule:evenodd;stroke-linejoin:round;stroke-miterlimit:2;"><g><path d="M184.328,34.169l0.063,0.099l0.117,-0.012c0.236,0.006 0.393,0.152 0.543,0.307c0.186,0.221 0.537,0.146 0.708,0.393l-0.019,-0.012c0.213,0.186 0.57,0.115 0.727,0.404l-0.033,-0.023c0.242,0.155 0.613,0.088 0.739,0.438c1.147,0.871 2.453,1.47 3.7,2.17c18.571,10.413 37.146,20.819 55.723,31.22c0.465,0.261 0.883,0.625 1.44,0.696c0.189,0.218 0.564,0.127 0.708,0.422l-0.047,-0.05c0.49,0.645 0.236,1.389 0.236,2.079c0.017,27.133 0.011,54.266 0.015,81.393c0.129,1.102 -0.785,1.392 -1.48,1.787c-4.58,2.596 -9.202,5.119 -13.796,7.693c-8.298,4.65 -16.618,9.263 -24.927,13.896c-0.21,0.117 -0.427,0.216 -0.657,0.288c-0.281,0.062 -0.559,0.051 -0.837,-0.026c-9.219,-5.138 -18.396,-10.353 -27.589,-15.541c-14.469,-8.167 -28.941,-16.329 -43.417,-24.485c-1.504,-0.847 -2.098,-1.852 -2.092,-3.565c0.048,-14.52 0.027,-29.04 0.029,-43.56c0,-0.18 -0.002,-0.36 0.005,-0.54c0.086,-2.025 0.485,-2.268 2.244,-1.304c5.471,2.997 10.886,6.096 16.327,9.146c11.561,6.484 23.122,12.968 34.673,19.47c5.54,3.12 11.111,6.183 16.621,9.355c0.52,0.299 1.071,0.543 1.592,0.838c0.992,0.562 1.285,0.136 1.26,-0.837c-0.02,-0.779 -0.003,-1.561 -0.003,-2.341c0,-8.999 -0.052,-18 0.041,-26.999c0.02,-1.925 -0.605,-3.07 -2.273,-4.019c-11.316,-6.435 -22.581,-12.956 -33.862,-19.45c-11.23,-6.464 -22.453,-12.94 -33.69,-19.391c-0.417,-0.24 -0.809,-0.516 -1.138,-0.873c-0.128,-0.139 -0.228,-0.297 -0.305,-0.467c-0.021,-0.088 -0.041,-0.178 -0.062,-0.268c0.162,-0.748 0.836,-0.987 1.384,-1.308c12.13,-7.114 24.263,-14.221 36.398,-21.326c0.66,-0.387 1.338,-0.84 2.186,-0.559c0.177,0.037 0.328,0.125 0.456,0.254l-0.021,-0.014c0.216,0.183 0.578,0.108 0.725,0.414l-0.035,-0.025c0.246,0.136 0.598,0.074 0.751,0.392l-0.037,-0.025c0.25,0.129 0.609,0.06 0.744,0.402l-0.044,-0.036c0.201,0.01 0.314,0.172 0.461,0.273l0.016,0.008c0.165,0.247 0.512,0.164 0.692,0.383l-0.007,-0.004c0.195,0.21 0.547,0.138 0.715,0.396l-0.024,-0.015c0.219,0.177 0.579,0.105 0.728,0.409l-0.041,-0.03c0.181,0.028 0.283,0.182 0.428,0.268c0.033,0.106 0.1,0.138 0.203,0.097c0.222,0.016 0.372,0.161 0.525,0.299l0.008,0.004c0.177,0.233 0.525,0.154 0.7,0.389l-0.015,-0.008c0.207,0.196 0.56,0.125 0.723,0.399l-0.028,-0.019c0.227,0.166 0.591,0.092 0.729,0.415l-0.044,-0.034c0.194,0.012 0.298,0.173 0.44,0.27" style="fill:#2d294c;fill-rule:nonzero;"/><path d="M55.567,50.797c0.096,0.015 0.181,-0.01 0.255,-0.073c0.126,-0.104 0.255,-0.205 0.385,-0.303l-0.022,0.022c0.175,-0.255 0.522,-0.189 0.727,-0.387l-0.014,0.009c0.181,-0.233 0.526,-0.16 0.712,-0.383l0.001,-0.001c0.141,-0.139 0.285,-0.274 0.487,-0.322c0.092,0.018 0.172,-0.005 0.241,-0.068c0.126,-0.108 0.257,-0.21 0.39,-0.308l-0.022,0.024c0.173,-0.261 0.52,-0.196 0.73,-0.386l-0.017,0.012c0.179,-0.242 0.525,-0.173 0.719,-0.386l-0.006,0.003c0.184,-0.215 0.528,-0.136 0.699,-0.378l0.015,-0.008c0.141,-0.099 0.248,-0.241 0.405,-0.319l-0.024,0.026c0.173,-0.266 0.519,-0.202 0.734,-0.386l-0.02,0.013c0.178,-0.249 0.524,-0.182 0.726,-0.385l-0.012,0.007c0.182,-0.226 0.527,-0.152 0.708,-0.382l0.006,-0.003c0.143,-0.132 0.285,-0.265 0.479,-0.318c0.096,0.015 0.18,-0.009 0.252,-0.073c0.127,-0.104 0.256,-0.205 0.386,-0.304l-0.022,0.023c0.176,-0.255 0.521,-0.19 0.729,-0.385l-0.015,0.01c0.18,-0.237 0.525,-0.165 0.714,-0.384l-0.001,0c0.185,-0.208 0.528,-0.126 0.691,-0.375l0.022,-0.012c0.146,-0.091 0.251,-0.234 0.404,-0.315l-0.022,0.026c0.174,-0.262 0.52,-0.197 0.732,-0.386l-0.018,0.012c0.179,-0.244 0.524,-0.176 0.722,-0.384l-0.008,0.005c0.183,-0.221 0.527,-0.143 0.7,-0.38l0.013,-0.007c0.145,-0.123 0.284,-0.255 0.471,-0.314c0.1,0.013 0.188,-0.013 0.264,-0.078c0.128,-0.099 0.254,-0.198 0.381,-0.297l-0.022,0.019c0.178,-0.249 0.524,-0.182 0.726,-0.385l-0.012,0.008c0.183,-0.228 0.527,-0.155 0.711,-0.381l0.003,-0.002c0.142,-0.135 0.285,-0.269 0.483,-0.32c0.093,0.016 0.176,-0.007 0.247,-0.07c0.127,-0.106 0.256,-0.208 0.388,-0.306l-0.023,0.022c0.176,-0.256 0.522,-0.191 0.729,-0.386l-0.015,0.01c0.18,-0.237 0.525,-0.166 0.717,-0.383l-0.003,0.002c0.184,-0.212 0.528,-0.131 0.693,-0.376l0.02,-0.011c0.143,-0.095 0.25,-0.237 0.404,-0.316l-0.022,0.025c0.173,-0.264 0.519,-0.198 0.732,-0.386l-0.019,0.012c0.178,-0.245 0.524,-0.177 0.722,-0.385l-0.008,0.005c0.184,-0.221 0.527,-0.145 0.704,-0.379l0.01,-0.004c0.144,-0.127 0.283,-0.26 0.474,-0.316c0.098,0.013 0.184,-0.013 0.259,-0.077c0.128,-0.101 0.255,-0.201 0.383,-0.3l-0.022,0.021c0.177,-0.252 0.523,-0.185 0.727,-0.385l-0.013,0.008c0.181,-0.23 0.527,-0.157 0.71,-0.383l0.003,-0.002c0.143,-0.136 0.287,-0.271 0.487,-0.319c0.092,0.018 0.173,-0.005 0.243,-0.068c0.125,-0.108 0.255,-0.211 0.389,-0.309l-0.023,0.024c0.175,-0.259 0.521,-0.194 0.731,-0.387l-0.018,0.012c0.18,-0.24 0.526,-0.17 0.718,-0.385l-0.004,0.002c0.184,-0.213 0.528,-0.133 0.695,-0.377l0.018,-0.009c0.142,-0.096 0.249,-0.239 0.405,-0.317l-0.023,0.025c0.173,-0.265 0.519,-0.2 0.732,-0.386l-0.018,0.013c0.178,-0.248 0.524,-0.18 0.723,-0.386l-0.009,0.007c0.182,-0.224 0.527,-0.148 0.703,-0.382l0.01,-0.005c0.144,-0.127 0.284,-0.26 0.475,-0.315c0.098,0.014 0.183,-0.011 0.258,-0.074c0.127,-0.102 0.255,-0.203 0.384,-0.302l-0.022,0.022c0.176,-0.254 0.522,-0.188 0.728,-0.386l-0.014,0.01c0.18,-0.234 0.526,-0.161 0.712,-0.384l0.001,-0.001c0.141,-0.139 0.285,-0.274 0.487,-0.322c0.091,0.018 0.172,-0.005 0.241,-0.068c0.126,-0.108 0.256,-0.211 0.39,-0.309l-0.023,0.024c0.175,-0.259 0.521,-0.195 0.731,-0.385l-0.017,0.012c0.179,-0.242 0.525,-0.173 0.719,-0.386l-0.006,0.003c0.185,-0.215 0.528,-0.136 0.698,-0.378l0.016,-0.008c0.141,-0.099 0.248,-0.241 0.405,-0.319l-0.024,0.026c0.173,-0.266 0.519,-0.201 0.733,-0.386l-0.019,0.012c0.178,-0.248 0.524,-0.181 0.726,-0.384l-0.012,0.007c0.183,-0.227 0.527,-0.152 0.707,-0.382l0.007,-0.003c0.143,-0.132 0.285,-0.265 0.48,-0.318c0.095,0.015 0.179,-0.009 0.252,-0.072c0.126,-0.105 0.255,-0.206 0.384,-0.305l-0.021,0.023c0.176,-0.255 0.521,-0.19 0.729,-0.386l-0.015,0.011c0.18,-0.236 0.525,-0.165 0.714,-0.384l-0.001,0c0.185,-0.208 0.529,-0.126 0.691,-0.375l0.022,-0.012c0.145,-0.091 0.251,-0.234 0.404,-0.314l-0.022,0.024c0.173,-0.261 0.52,-0.196 0.73,-0.386l-0.017,0.011c0.181,-0.241 0.525,-0.174 0.723,-0.382l-0.008,0.005c0.182,-0.221 0.527,-0.143 0.701,-0.38l0.012,-0.007c0.145,-0.123 0.284,-0.255 0.472,-0.314c0.099,0.013 0.187,-0.013 0.263,-0.078c0.128,-0.099 0.254,-0.198 0.381,-0.297l-0.022,0.019c0.178,-0.249 0.524,-0.181 0.726,-0.385l-0.012,0.007c0.183,-0.226 0.527,-0.154 0.711,-0.38l0.003,-0.002c0.142,-0.135 0.285,-0.269 0.483,-0.32c0.093,0.016 0.177,-0.007 0.248,-0.07c0.126,-0.106 0.255,-0.209 0.387,-0.307l-0.023,0.023c0.176,-0.257 0.521,-0.191 0.729,-0.386l-0.015,0.01c0.18,-0.237 0.525,-0.165 0.715,-0.384l-0.002,0.001c0.186,-0.209 0.529,-0.129 0.695,-0.374l0.019,-0.011c0.143,-0.095 0.25,-0.237 0.405,-0.316l-0.023,0.025c0.172,-0.264 0.519,-0.198 0.732,-0.386l-0.018,0.012c0.177,-0.245 0.523,-0.177 0.721,-0.385l-0.008,0.005c0.184,-0.221 0.527,-0.145 0.703,-0.38l0.01,-0.005c0.145,-0.125 0.285,-0.259 0.476,-0.314c0.097,0.013 0.183,-0.013 0.258,-0.077c0.128,-0.101 0.255,-0.201 0.384,-0.3l-0.023,0.021c0.177,-0.252 0.523,-0.186 0.728,-0.385l-0.014,0.008c0.181,-0.23 0.527,-0.157 0.71,-0.383l0.003,-0.002c0.143,-0.135 0.285,-0.27 0.484,-0.32c0.093,0.017 0.175,-0.005 0.246,-0.068c0.126,-0.107 0.256,-0.21 0.389,-0.308l-0.023,0.024c0.175,-0.259 0.521,-0.194 0.731,-0.387l-0.018,0.012c0.18,-0.24 0.525,-0.17 0.718,-0.385l-0.004,0.002c0.184,-0.212 0.528,-0.132 0.694,-0.378l0.019,-0.01c0.143,-0.094 0.25,-0.237 0.405,-0.316l-0.023,0.025c0.173,-0.264 0.519,-0.199 0.732,-0.385l-0.018,0.013c0.177,-0.248 0.523,-0.18 0.723,-0.386l-0.009,0.006c0.182,-0.223 0.526,-0.147 0.703,-0.381l0.01,-0.005c0.144,-0.126 0.283,-0.259 0.475,-0.316c0.097,0.014 0.183,-0.011 0.258,-0.076c0.127,-0.1 0.255,-0.201 0.384,-0.299l-0.022,0.022c0.177,-0.254 0.522,-0.188 0.728,-0.386l-0.014,0.01c0.181,-0.234 0.526,-0.162 0.712,-0.384l0.001,-0.001c0.141,-0.139 0.285,-0.274 0.487,-0.322c0.092,0.018 0.172,-0.005 0.241,-0.068c0.126,-0.108 0.256,-0.211 0.39,-0.309l-0.023,0.024c0.175,-0.259 0.521,-0.195 0.731,-0.385l-0.017,0.011c0.179,-0.241 0.525,-0.172 0.719,-0.385l-0.006,0.003c0.185,-0.215 0.528,-0.136 0.699,-0.378l0.015,-0.008c0.141,-0.099 0.248,-0.241 0.405,-0.319l-0.024,0.026c0.172,-0.266 0.519,-0.201 0.732,-0.387l-0.018,0.013c0.178,-0.247 0.523,-0.181 0.726,-0.384l-0.012,0.007c0.182,-0.227 0.527,-0.152 0.708,-0.382l0.006,-0.003c0.143,-0.132 0.284,-0.265 0.48,-0.318c0.095,0.015 0.179,-0.009 0.252,-0.073c0.126,-0.104 0.254,-0.205 0.384,-0.304l-0.022,0.023c0.176,-0.255 0.522,-0.189 0.729,-0.387l-0.015,0.01c0.181,-0.234 0.526,-0.163 0.715,-0.382l-0.001,0c0.185,-0.208 0.528,-0.126 0.691,-0.375l0.022,-0.012c0.146,-0.091 0.251,-0.234 0.404,-0.314l-0.022,0.024c0.173,-0.261 0.52,-0.196 0.73,-0.386l-0.017,0.011c0.18,-0.241 0.525,-0.173 0.722,-0.383l-0.008,0.004c0.185,-0.219 0.528,-0.141 0.702,-0.378l0.012,-0.007c0.145,-0.122 0.284,-0.254 0.472,-0.314c0.099,0.013 0.187,-0.013 0.263,-0.078c0.128,-0.099 0.254,-0.198 0.381,-0.298l-0.022,0.02c0.177,-0.249 0.524,-0.181 0.726,-0.385l-0.012,0.007c0.183,-0.226 0.527,-0.153 0.709,-0.381l0.005,-0.003c0.143,-0.133 0.285,-0.268 0.483,-0.318c0.093,0.016 0.176,-0.007 0.248,-0.07c0.126,-0.106 0.255,-0.208 0.387,-0.307l-0.023,0.023c0.176,-0.257 0.521,-0.192 0.731,-0.385l-0.016,0.012c0.238,-0.237 0.47,-0.247 0.693,0.021l-0.022,-0.03c0.163,0.092 0.279,0.229 0.381,0.381l-0.032,-0.016c0.114,0.209 0.138,0.428 0.075,0.658c-0.163,1.131 -0.178,2.269 -0.178,3.41c0.004,13.076 0.003,26.153 0,39.229c0,0.719 0.055,1.44 -0.069,2.15c0.157,1.041 -0.564,1.45 -1.316,1.885c-6.17,3.559 -12.4,7.012 -18.599,10.519c-8.179,4.628 -16.367,9.239 -24.554,13.85c-8.97,5.052 -17.939,10.104 -26.912,15.149c-0.565,0.317 -1.099,0.747 -1.802,0.748c-6.504,-3.595 -12.986,-7.231 -19.498,-10.815c-7.243,-3.987 -14.47,-8.003 -21.687,-12.038c-0.062,-0.361 -0.152,-0.726 0.119,-1.048l-0.006,0.006c0.185,-0.215 0.528,-0.136 0.699,-0.378l0.015,-0.008c0.141,-0.099 0.248,-0.241 0.405,-0.319l-0.024,0.026c0.172,-0.266 0.519,-0.201 0.733,-0.387l-0.019,0.013c0.177,-0.248 0.523,-0.18 0.723,-0.386l-0.009,0.007c0.182,-0.224 0.526,-0.149 0.705,-0.381l0.008,-0.005c0.145,-0.129 0.286,-0.262 0.481,-0.315c0.095,0.015 0.179,-0.009 0.252,-0.073c0.126,-0.104 0.254,-0.205 0.384,-0.304l-0.022,0.023c0.176,-0.255 0.522,-0.189 0.728,-0.387l-0.014,0.009c0.181,-0.233 0.526,-0.16 0.712,-0.383l0.001,-0.001c0.141,-0.139 0.285,-0.274 0.487,-0.321c0.091,0.018 0.172,-0.005 0.241,-0.067c0.126,-0.109 0.256,-0.212 0.391,-0.31l-0.023,0.024c0.173,-0.261 0.52,-0.196 0.73,-0.386l-0.017,0.011c0.179,-0.241 0.525,-0.172 0.719,-0.385l-0.005,0.004c0.184,-0.216 0.527,-0.137 0.698,-0.379l0.015,-0.008c0.147,-0.118 0.285,-0.25 0.47,-0.31c0.1,0.012 0.189,-0.014 0.266,-0.078c0.128,-0.099 0.255,-0.198 0.381,-0.298l-0.022,0.021c0.178,-0.25 0.524,-0.182 0.726,-0.386l-0.012,0.007c0.183,-0.226 0.527,-0.152 0.708,-0.382l0.006,-0.003c0.142,-0.132 0.284,-0.265 0.48,-0.318c0.095,0.015 0.179,-0.009 0.252,-0.073c0.126,-0.104 0.255,-0.205 0.385,-0.303l-0.022,0.022c0.176,-0.255 0.521,-0.19 0.729,-0.385l-0.015,0.01c0.18,-0.237 0.525,-0.165 0.714,-0.384l-0.001,0c0.185,-0.208 0.528,-0.126 0.691,-0.375l0.022,-0.012c0.146,-0.091 0.251,-0.234 0.404,-0.315l-0.022,0.026c0.174,-0.262 0.52,-0.197 0.732,-0.386l-0.018,0.012c0.179,-0.244 0.524,-0.176 0.722,-0.384l-0.008,0.005c0.182,-0.221 0.527,-0.143 0.701,-0.38l0.012,-0.007c0.145,-0.123 0.284,-0.255 0.472,-0.314c0.099,0.013 0.187,-0.013 0.263,-0.078c0.128,-0.099 0.254,-0.198 0.381,-0.297l-0.022,0.019c0.179,-0.249 0.524,-0.184 0.728,-0.383l-0.013,0.008c0.181,-0.23 0.527,-0.157 0.71,-0.383l0.003,-0.002c0.142,-0.135 0.285,-0.269 0.483,-0.32c0.094,0.016 0.176,-0.007 0.248,-0.07c0.126,-0.106 0.255,-0.208 0.387,-0.306l-0.023,0.022c0.175,-0.256 0.521,-0.192 0.73,-0.385l-0.016,0.01c0.18,-0.238 0.525,-0.168 0.718,-0.383l-0.004,0.002c0.183,-0.213 0.528,-0.132 0.694,-0.377l0.019,-0.011c0.143,-0.095 0.25,-0.237 0.405,-0.316l-0.023,0.025c0.173,-0.264 0.519,-0.198 0.732,-0.387l-0.019,0.013c0.178,-0.245 0.524,-0.177 0.722,-0.385l-0.008,0.005c0.184,-0.221 0.527,-0.145 0.705,-0.378l0.009,-0.006c0.144,-0.126 0.284,-0.259 0.475,-0.316c0.097,0.014 0.183,-0.012 0.258,-0.076c0.128,-0.101 0.255,-0.201 0.384,-0.3l-0.023,0.021c0.177,-0.252 0.523,-0.185 0.727,-0.385l-0.013,0.008c0.182,-0.23 0.527,-0.157 0.712,-0.382l0.002,-0.001c0.142,-0.138 0.285,-0.273 0.487,-0.32c0.092,0.017 0.172,-0.006 0.241,-0.069c0.126,-0.108 0.256,-0.211 0.39,-0.309l-0.023,0.024c0.174,-0.259 0.521,-0.194 0.731,-0.387l-0.018,0.012c0.18,-0.24 0.525,-0.17 0.718,-0.385l-0.004,0.002c0.186,-0.212 0.528,-0.134 0.698,-0.376l0.016,-0.008c0.141,-0.099 0.248,-0.241 0.405,-0.319l-0.024,0.025c0.172,-0.265 0.519,-0.2 0.732,-0.386l-0.018,0.013c0.178,-0.248 0.523,-0.18 0.723,-0.386l-0.009,0.007c0.182,-0.224 0.527,-0.148 0.704,-0.382l0.009,-0.004c0.145,-0.128 0.285,-0.262 0.478,-0.315" style="fill:#81a8c7;fill-rule:nonzero;"/><path d="M207.475,177.075c0.199,-0.005 0.397,-0.01 0.595,-0.015c2.088,0.64 3.825,1.959 5.699,3.003c11.038,6.15 22.09,12.273 33.175,18.338c0.68,0.371 1.408,0.682 1.879,1.348c0.088,0.205 0.023,0.336 -0.193,0.39l-0.117,-0.013l-0.106,0.052c-0.189,0.201 -0.527,0.111 -0.695,0.355l-0.015,0.008c-0.147,0.119 -0.285,0.251 -0.471,0.311c-0.099,-0.012 -0.189,0.014 -0.267,0.079c-0.126,0.097 -0.253,0.196 -0.379,0.296l0.021,-0.02c-0.177,0.25 -0.523,0.183 -0.725,0.386l0.012,-0.007c-0.183,0.226 -0.528,0.152 -0.708,0.381l-0.006,0.004c-0.144,0.131 -0.285,0.265 -0.48,0.317c-0.096,-0.014 -0.179,0.01 -0.252,0.074c-0.126,0.103 -0.255,0.204 -0.386,0.303l0.023,-0.023c-0.177,0.257 -0.522,0.191 -0.73,0.386l0.016,-0.011c-0.18,0.237 -0.526,0.166 -0.715,0.385l0.001,-0.001c-0.185,0.209 -0.528,0.127 -0.691,0.376l-0.022,0.012c-0.145,0.091 -0.251,0.234 -0.404,0.314l0.022,-0.025c-0.174,0.262 -0.519,0.198 -0.732,0.386l0.018,-0.013c-0.178,0.245 -0.524,0.176 -0.722,0.385l0.008,-0.005c-0.182,0.221 -0.527,0.143 -0.7,0.38l-0.012,0.007c-0.146,0.123 -0.284,0.255 -0.472,0.313c-0.1,-0.012 -0.187,0.014 -0.264,0.078c-0.127,0.099 -0.254,0.199 -0.381,0.298l0.022,-0.02c-0.178,0.25 -0.523,0.184 -0.728,0.384l0.013,-0.009c-0.181,0.231 -0.526,0.157 -0.709,0.384l-0.004,0.002c-0.142,0.135 -0.284,0.268 -0.482,0.319c-0.094,-0.015 -0.177,0.008 -0.248,0.071c-0.127,0.106 -0.256,0.208 -0.388,0.306l0.024,-0.023c-0.177,0.258 -0.522,0.192 -0.731,0.386l0.017,-0.011c-0.181,0.238 -0.526,0.168 -0.719,0.384l0.004,-0.003c-0.184,0.213 -0.527,0.132 -0.693,0.378l-0.02,0.01c-0.143,0.095 -0.249,0.237 -0.404,0.317l0.023,-0.026c-0.173,0.264 -0.519,0.2 -0.732,0.387l0.018,-0.013c-0.179,0.246 -0.524,0.178 -0.723,0.385l0.009,-0.006c-0.183,0.223 -0.527,0.146 -0.704,0.38l-0.009,0.006c-0.145,0.126 -0.284,0.258 -0.475,0.315c-0.098,-0.013 -0.184,0.012 -0.26,0.077c-0.127,0.1 -0.253,0.2 -0.382,0.3l0.022,-0.022c-0.177,0.252 -0.523,0.185 -0.727,0.386l0.013,-0.009c-0.182,0.231 -0.526,0.159 -0.712,0.381l-0.002,0.001c-0.141,0.14 -0.285,0.275 -0.487,0.323c-0.091,-0.018 -0.171,0.005 -0.241,0.068c-0.126,0.107 -0.256,0.211 -0.389,0.309l0.023,-0.024c-0.176,0.259 -0.521,0.193 -0.731,0.386l0.016,-0.012c-0.178,0.241 -0.525,0.17 -0.717,0.386l0.004,-0.003c-0.185,0.213 -0.528,0.135 -0.698,0.376l-0.015,0.008c-0.141,0.099 -0.249,0.241 -0.405,0.32l0.022,-0.026c-0.171,0.266 -0.517,0.201 -0.731,0.387l0.019,-0.013c-0.178,0.247 -0.524,0.18 -0.724,0.385l0.01,-0.006c-0.183,0.224 -0.527,0.149 -0.705,0.381l-0.009,0.004c-0.144,0.129 -0.285,0.263 -0.48,0.315c-0.096,-0.015 -0.18,0.01 -0.252,0.074c-0.127,0.103 -0.255,0.204 -0.385,0.303l0.022,-0.021c-0.176,0.253 -0.522,0.188 -0.728,0.385l0.014,-0.009c-0.18,0.233 -0.525,0.161 -0.711,0.383l-0.002,0.001c-0.141,0.14 -0.285,0.274 -0.487,0.323c-0.091,-0.018 -0.171,0.003 -0.241,0.066c-0.125,0.108 -0.256,0.212 -0.391,0.309l0.024,-0.024c-0.174,0.261 -0.52,0.196 -0.731,0.387l0.017,-0.012c-0.179,0.242 -0.525,0.172 -0.719,0.385l0.006,-0.004c-0.185,0.217 -0.528,0.138 -0.698,0.379l-0.015,0.008c-0.147,0.119 -0.285,0.251 -0.471,0.311c-0.1,-0.012 -0.189,0.014 -0.266,0.079c-0.127,0.098 -0.254,0.196 -0.381,0.296l0.022,-0.02c-0.177,0.25 -0.524,0.183 -0.725,0.386l0.011,-0.007c-0.182,0.226 -0.527,0.152 -0.707,0.381l-0.006,0.004c-0.144,0.131 -0.285,0.265 -0.48,0.317c-0.096,-0.014 -0.18,0.01 -0.252,0.074c-0.127,0.103 -0.255,0.204 -0.385,0.303l0.022,-0.023c-0.176,0.257 -0.522,0.191 -0.73,0.386l0.016,-0.011c-0.18,0.237 -0.525,0.166 -0.715,0.385l0.001,-0.001c-0.185,0.209 -0.528,0.127 -0.69,0.376l-0.023,0.012c-0.145,0.091 -0.251,0.233 -0.404,0.314l0.023,-0.025c-0.175,0.262 -0.52,0.198 -0.733,0.386l0.018,-0.013c-0.179,0.245 -0.524,0.176 -0.721,0.385l0.007,-0.005c-0.182,0.221 -0.527,0.143 -0.7,0.38l-0.013,0.007c-0.145,0.123 -0.283,0.255 -0.472,0.313c-0.099,-0.012 -0.186,0.014 -0.262,0.078c-0.128,0.099 -0.255,0.199 -0.382,0.298l0.022,-0.02c-0.179,0.249 -0.523,0.184 -0.728,0.384l0.013,-0.009c-0.181,0.231 -0.526,0.157 -0.709,0.384l-0.004,0.002c-0.142,0.135 -0.284,0.268 -0.482,0.319c-0.095,-0.015 -0.177,0.008 -0.249,0.071c-0.126,0.106 -0.255,0.208 -0.386,0.306l0.023,-0.023c-0.177,0.258 -0.522,0.192 -0.731,0.386l0.017,-0.011c-0.182,0.239 -0.525,0.168 -0.718,0.384l0.004,-0.003c-0.185,0.213 -0.528,0.132 -0.694,0.378l-0.02,0.011c-0.143,0.094 -0.249,0.236 -0.405,0.316l0.024,-0.026c-0.173,0.264 -0.519,0.2 -0.732,0.387l0.018,-0.013c-0.179,0.246 -0.524,0.178 -0.723,0.385l0.009,-0.006c-0.183,0.223 -0.527,0.146 -0.704,0.38l-0.01,0.006c-0.143,0.126 -0.283,0.259 -0.474,0.315c-0.098,-0.013 -0.184,0.012 -0.259,0.077c-0.127,0.1 -0.254,0.2 -0.383,0.3l0.022,-0.022c-0.177,0.252 -0.523,0.185 -0.727,0.386l0.013,-0.009c-0.182,0.231 -0.526,0.159 -0.712,0.381l-0.002,0.001c-0.141,0.14 -0.285,0.275 -0.487,0.323c-0.092,-0.018 -0.172,0.005 -0.241,0.068c-0.126,0.107 -0.256,0.211 -0.389,0.309l0.023,-0.024c-0.176,0.259 -0.521,0.193 -0.731,0.386l0.017,-0.012c-0.179,0.241 -0.526,0.17 -0.717,0.386l0.004,-0.003c-0.186,0.213 -0.529,0.135 -0.699,0.376l-0.015,0.008c-0.141,0.099 -0.249,0.241 -0.405,0.32l0.023,-0.026c-0.172,0.266 -0.518,0.201 -0.732,0.387l0.019,-0.012c-0.179,0.246 -0.524,0.179 -0.724,0.384l0.01,-0.006c-0.183,0.224 -0.527,0.148 -0.705,0.381l-0.009,0.005c-0.144,0.128 -0.285,0.262 -0.48,0.315c-0.096,-0.016 -0.18,0.009 -0.252,0.073c-0.126,0.103 -0.255,0.204 -0.385,0.303l0.022,-0.021c-0.176,0.254 -0.522,0.188 -0.728,0.385l0.014,-0.009c-0.18,0.233 -0.525,0.161 -0.712,0.383l-0.001,0.001c-0.141,0.14 -0.285,0.275 -0.487,0.323c-0.091,-0.018 -0.171,0.003 -0.241,0.066c-0.125,0.108 -0.256,0.212 -0.39,0.309l0.022,-0.024c-0.174,0.261 -0.519,0.196 -0.73,0.387l0.017,-0.012c-0.179,0.242 -0.525,0.172 -0.718,0.385l0.004,-0.003c-0.184,0.216 -0.527,0.137 -0.697,0.378l-0.016,0.008c-0.146,0.119 -0.284,0.251 -0.47,0.311c-0.099,-0.012 -0.189,0.014 -0.266,0.079c-0.127,0.098 -0.254,0.196 -0.381,0.296l0.022,-0.02c-0.178,0.25 -0.524,0.183 -0.725,0.386l0.011,-0.007c-0.182,0.226 -0.527,0.152 -0.707,0.382l-0.006,0.002c-0.143,0.132 -0.285,0.266 -0.48,0.318c-0.096,-0.014 -0.18,0.01 -0.252,0.074c-0.126,0.103 -0.255,0.204 -0.386,0.303l0.023,-0.022c-0.176,0.256 -0.522,0.19 -0.731,0.385l0.017,-0.011c-0.18,0.237 -0.526,0.166 -0.715,0.386l0.001,-0.002c-0.184,0.209 -0.528,0.127 -0.69,0.376l-0.022,0.012c-0.146,0.091 -0.251,0.233 -0.405,0.313l0.022,-0.024c-0.174,0.262 -0.519,0.198 -0.732,0.386l0.018,-0.013c-0.179,0.245 -0.524,0.176 -0.721,0.385l0.007,-0.005c-0.183,0.22 -0.527,0.143 -0.7,0.38l-0.013,0.007c-0.145,0.123 -0.284,0.254 -0.472,0.312c-0.098,-0.012 -0.186,0.015 -0.263,0.079c-0.127,0.099 -0.254,0.199 -0.381,0.298l0.022,-0.02c-0.179,0.249 -0.524,0.184 -0.728,0.384l0.013,-0.009c-0.181,0.231 -0.526,0.157 -0.709,0.384l-0.004,0.002c-0.142,0.134 -0.284,0.268 -0.483,0.32c-0.094,-0.016 -0.176,0.007 -0.248,0.07c-0.126,0.106 -0.254,0.208 -0.386,0.306l0.022,-0.023c-0.175,0.258 -0.521,0.192 -0.73,0.386l0.017,-0.011c-0.181,0.239 -0.526,0.168 -0.719,0.384l0.005,-0.003c-0.184,0.213 -0.528,0.132 -0.694,0.378l-0.019,0.011c-0.144,0.094 -0.25,0.236 -0.405,0.316l0.023,-0.026c-0.174,0.264 -0.519,0.2 -0.732,0.387l0.018,-0.013c-0.179,0.246 -0.524,0.178 -0.722,0.386l0.008,-0.006c-0.183,0.221 -0.527,0.145 -0.704,0.379l-0.01,0.006c-0.144,0.126 -0.284,0.259 -0.474,0.315c-0.098,-0.013 -0.185,0.012 -0.259,0.077c-0.128,0.1 -0.255,0.2 -0.383,0.3l0.022,-0.022c-0.177,0.252 -0.523,0.185 -0.727,0.386l0.013,-0.009c-0.181,0.231 -0.526,0.159 -0.712,0.382l-0.002,0.001c-0.141,0.139 -0.285,0.274 -0.486,0.322c-0.092,-0.018 -0.173,0.005 -0.242,0.068c-0.126,0.107 -0.256,0.211 -0.389,0.309l0.022,-0.024c-0.174,0.259 -0.52,0.193 -0.73,0.385l0.017,-0.011c-0.179,0.241 -0.525,0.17 -0.717,0.386l0.004,-0.003c-0.186,0.213 -0.528,0.135 -0.699,0.376l-0.015,0.008c-0.141,0.099 -0.249,0.241 -0.405,0.32l0.023,-0.026c-0.172,0.266 -0.519,0.201 -0.732,0.387l0.019,-0.012c-0.179,0.246 -0.525,0.179 -0.724,0.384l0.01,-0.006c-0.183,0.224 -0.528,0.148 -0.704,0.381l-0.01,0.005c-0.144,0.128 -0.285,0.262 -0.479,0.315c-0.096,-0.015 -0.181,0.009 -0.253,0.073c-0.126,0.103 -0.255,0.204 -0.385,0.303l0.022,-0.021c-0.176,0.255 -0.522,0.188 -0.728,0.385l0.014,-0.009c-0.18,0.233 -0.525,0.161 -0.712,0.383l-0.001,0.001c-0.141,0.14 -0.285,0.275 -0.486,0.322c-0.092,-0.017 -0.172,0.004 -0.242,0.067c-0.126,0.108 -0.256,0.212 -0.39,0.309l0.022,-0.024c-0.173,0.261 -0.519,0.196 -0.731,0.387l0.018,-0.012c-0.178,0.242 -0.524,0.172 -0.719,0.385l0.006,-0.003c-0.184,0.216 -0.527,0.137 -0.698,0.377l-0.015,0.009c-0.147,0.119 -0.285,0.251 -0.47,0.311c-0.1,-0.012 -0.189,0.014 -0.267,0.079c-0.127,0.098 -0.255,0.196 -0.381,0.296l0.022,-0.02c-0.178,0.249 -0.524,0.183 -0.725,0.387l0.011,-0.008c-0.182,0.227 -0.527,0.152 -0.707,0.382l-0.006,0.002c-0.143,0.132 -0.285,0.266 -0.48,0.318c-0.095,-0.014 -0.18,0.01 -0.252,0.074c-0.126,0.103 -0.255,0.204 -0.386,0.303l0.023,-0.022c-0.177,0.256 -0.522,0.19 -0.73,0.385l0.016,-0.011c-0.18,0.237 -0.526,0.166 -0.715,0.386l0.001,-0.002c-0.184,0.209 -0.528,0.127 -0.69,0.376l-0.023,0.012c-0.145,0.091 -0.25,0.233 -0.404,0.313l0.022,-0.024c-0.174,0.262 -0.519,0.198 -0.732,0.386l0.018,-0.013c-0.178,0.245 -0.523,0.176 -0.722,0.385l0.009,-0.005c-0.183,0.22 -0.527,0.143 -0.702,0.38l-0.012,0.007c-0.145,0.123 -0.283,0.254 -0.471,0.313c-0.1,-0.013 -0.187,0.014 -0.264,0.078c-0.127,0.099 -0.254,0.199 -0.381,0.298l0.022,-0.02c-0.179,0.249 -0.524,0.183 -0.728,0.384l0.013,-0.009c-0.181,0.231 -0.526,0.157 -0.709,0.384l-0.004,0.002c-0.142,0.134 -0.285,0.268 -0.482,0.319c-0.094,-0.015 -0.177,0.008 -0.248,0.071c-0.126,0.106 -0.255,0.208 -0.388,0.306l0.023,-0.023c-0.175,0.258 -0.521,0.192 -0.729,0.387l0.016,-0.012c-0.181,0.238 -0.526,0.168 -0.719,0.384l0.005,-0.003c-0.184,0.213 -0.528,0.132 -0.695,0.378l-0.019,0.011c-0.143,0.094 -0.249,0.236 -0.404,0.316l0.023,-0.026c-0.173,0.264 -0.519,0.2 -0.732,0.387l0.018,-0.013c-0.178,0.246 -0.524,0.177 -0.722,0.386l0.008,-0.005c-0.183,0.22 -0.527,0.145 -0.704,0.378l-0.01,0.006c-0.144,0.126 -0.283,0.259 -0.474,0.315c-0.098,-0.013 -0.184,0.012 -0.259,0.077c-0.127,0.1 -0.255,0.2 -0.383,0.3l0.022,-0.022c-0.177,0.252 -0.523,0.185 -0.727,0.386l0.013,-0.009c-0.181,0.231 -0.526,0.158 -0.712,0.382l-0.002,0.002c-0.141,0.138 -0.285,0.273 -0.487,0.321c-0.091,-0.018 -0.172,0.005 -0.241,0.068c-0.126,0.107 -0.256,0.211 -0.389,0.309l0.026,-0.023c-0.335,0.279 -0.637,0.243 -0.909,-0.093c-0.227,-0.366 -0.328,-0.777 -0.326,-1.197c0.021,-4.957 -0.286,-9.919 0.187,-14.869c0.074,-0.776 0.128,-1.549 0.127,-2.326c-0.016,-8.847 0.037,-17.694 -0.035,-26.536c0.106,-1.267 1.25,-1.536 2.085,-2.007c6.577,-3.705 13.132,-7.449 19.705,-11.16c12.469,-7.041 24.924,-14.106 37.383,-21.162c3.806,-2.156 7.609,-4.317 11.413,-6.475c0.672,-0.381 1.328,-0.827 2.124,-0.941" style="fill:#81a8c7;fill-rule:nonzero;"/><path d="M24.142,201.292c-0.056,-0.08 -0.133,-0.11 -0.229,-0.089c-0.209,-0.037 -0.355,-0.176 -0.504,-0.311l-0.008,-0.003c-0.178,-0.233 -0.526,-0.156 -0.703,-0.389l0.015,0.01c-0.206,-0.2 -0.557,-0.131 -0.726,-0.396l0.029,0.026c-0.133,-0.093 -0.265,-0.188 -0.393,-0.287l-0.092,-0.077l-0.121,0c-0.673,-0.505 -0.312,-1.222 -0.313,-1.823c-0.026,-14.386 -0.017,-28.771 -0.022,-43.151c0.166,-1.723 1.163,-0.753 1.745,-0.44c3.476,1.866 6.881,3.86 10.324,5.786c9.86,5.512 19.561,11.306 29.521,16.646c0.398,0.26 0.553,0.605 0.383,1.068c-0.407,4.124 -0.171,8.257 -0.168,12.383c0.004,3.945 0.21,7.908 0.162,11.835c-0.082,6.575 -0.06,13.158 -0.262,19.733c-0.01,0.301 -0.122,0.585 -0.265,0.851c-0.141,0.227 -0.338,0.296 -0.589,0.206l-0.021,-0.014c-0.16,-0.251 -0.516,-0.162 -0.687,-0.394l0.014,0.008c-0.205,-0.2 -0.556,-0.131 -0.725,-0.395l0.028,0.026c-0.132,-0.094 -0.263,-0.189 -0.392,-0.287c-0.059,-0.081 -0.138,-0.111 -0.236,-0.09c-0.205,-0.041 -0.349,-0.178 -0.499,-0.307l-0.012,-0.006c-0.173,-0.237 -0.521,-0.158 -0.698,-0.388l0.012,0.008c-0.203,-0.201 -0.553,-0.132 -0.724,-0.393l0.025,0.016c-0.222,-0.175 -0.576,-0.107 -0.734,-0.4l0.033,0.035c-0.176,-0.056 -0.281,-0.209 -0.423,-0.311l-0.011,-0.007c-0.173,-0.238 -0.521,-0.159 -0.7,-0.385l0.012,0.006c-0.202,-0.203 -0.552,-0.133 -0.723,-0.393l0.024,0.017c-0.22,-0.178 -0.574,-0.11 -0.732,-0.402l0.032,0.036c-0.174,-0.057 -0.279,-0.21 -0.423,-0.309l-0.015,-0.008c-0.168,-0.242 -0.517,-0.161 -0.695,-0.385l0.011,0.006c-0.201,-0.206 -0.551,-0.136 -0.723,-0.393l0.024,0.015c-0.219,-0.178 -0.573,-0.111 -0.732,-0.399l0.032,0.034c-0.173,-0.059 -0.278,-0.211 -0.422,-0.309l-0.016,-0.008c-0.168,-0.243 -0.515,-0.162 -0.695,-0.384l0.009,0.005c-0.198,-0.208 -0.547,-0.138 -0.72,-0.392l0.022,0.016c-0.217,-0.183 -0.571,-0.114 -0.73,-0.402l0.032,0.034c-0.173,-0.058 -0.277,-0.211 -0.423,-0.306l-0.019,-0.01c-0.164,-0.246 -0.511,-0.164 -0.691,-0.382l0.006,0.004c-0.195,-0.211 -0.546,-0.14 -0.717,-0.394l0.022,0.016c-0.217,-0.183 -0.571,-0.115 -0.733,-0.399l0.033,0.033c-0.17,-0.062 -0.274,-0.213 -0.421,-0.306l-0.021,-0.011c-0.162,-0.249 -0.51,-0.165 -0.689,-0.382l0.006,0.003c-0.195,-0.212 -0.544,-0.141 -0.718,-0.391l0.021,0.015c-0.215,-0.185 -0.569,-0.117 -0.731,-0.401l0.032,0.033c-0.169,-0.062 -0.273,-0.213 -0.421,-0.304l-0.022,-0.011c-0.161,-0.252 -0.507,-0.168 -0.689,-0.381l0.005,0.003c-0.192,-0.216 -0.543,-0.144 -0.716,-0.393l0.022,0.014c-0.215,-0.185 -0.569,-0.118 -0.732,-0.398l0.031,0.031c-0.166,-0.064 -0.27,-0.214 -0.42,-0.302l-0.026,-0.013c-0.157,-0.254 -0.504,-0.169 -0.684,-0.382l0.005,0.003c-0.192,-0.216 -0.541,-0.144 -0.717,-0.391l0.021,0.013c-0.214,-0.187 -0.567,-0.119 -0.73,-0.399l0.031,0.032c-0.166,-0.064 -0.27,-0.215 -0.42,-0.303l-0.025,-0.012c-0.158,-0.255 -0.503,-0.17 -0.686,-0.378l0,0.001c-0.187,-0.221 -0.537,-0.147 -0.711,-0.394l0.021,0.014c-0.214,-0.188 -0.566,-0.121 -0.731,-0.397l0.031,0.03c-0.14,-0.09 -0.274,-0.188 -0.402,-0.295c-0.052,-0.08 -0.123,-0.106 -0.215,-0.08c-0.217,-0.03 -0.368,-0.171 -0.513,-0.318c-0.187,-0.222 -0.536,-0.148 -0.711,-0.391l0.018,0.013c-0.211,-0.191 -0.563,-0.123 -0.729,-0.397l0.03,0.029c-0.138,-0.091 -0.273,-0.189 -0.4,-0.296c-0.052,-0.079 -0.124,-0.107 -0.215,-0.08c-0.217,-0.03 -0.366,-0.171 -0.514,-0.315l-0.002,-0.001c-0.184,-0.225 -0.534,-0.15 -0.708,-0.392l0.018,0.012c-0.211,-0.192 -0.563,-0.123 -0.729,-0.396l0.03,0.029c-0.138,-0.092 -0.27,-0.189 -0.399,-0.293c-0.054,-0.079 -0.129,-0.108 -0.222,-0.083c-0.213,-0.034 -0.362,-0.174 -0.509,-0.316l-0.002,-0.001c-0.184,-0.226 -0.533,-0.15 -0.708,-0.39l0.017,0.011c-0.21,-0.193 -0.56,-0.125 -0.729,-0.394l0.03,0.027c-0.136,-0.092 -0.268,-0.189 -0.397,-0.292c-0.054,-0.08 -0.127,-0.109 -0.22,-0.086c-0.215,-0.032 -0.363,-0.172 -0.511,-0.312l-0.004,-0.003c-0.182,-0.228 -0.531,-0.152 -0.707,-0.389l0.016,0.011c-0.207,-0.196 -0.559,-0.128 -0.727,-0.396l0.03,0.027c-0.135,-0.092 -0.268,-0.189 -0.397,-0.289c-0.056,-0.08 -0.132,-0.11 -0.228,-0.087c-0.21,-0.037 -0.355,-0.176 -0.504,-0.311l-0.006,-0.004c-0.179,-0.232 -0.529,-0.154 -0.704,-0.391l0.017,0.011c-0.209,-0.196 -0.559,-0.129 -0.729,-0.393l0.029,0.026c-0.134,-0.094 -0.265,-0.19 -0.394,-0.289" style="fill:#638baf;fill-rule:nonzero;"/><path d="M135.42,52.595c-0.532,-0.383 -0.406,-0.956 -0.406,-1.479c-0.004,-14.288 -0.005,-28.577 0.003,-42.865c0,-0.56 -0.2,-1.263 0.693,-1.401c0.128,-0.136 0.254,-0.135 0.378,0.005l-0.007,-0.006c0.197,0.21 0.544,0.141 0.721,0.389l-0.021,-0.014c0.216,0.186 0.564,0.12 0.733,0.39l-0.026,-0.027c0.16,0.072 0.264,0.219 0.412,0.308l0.023,0.013c0.16,0.252 0.504,0.168 0.688,0.375c0.189,0.221 0.534,0.149 0.714,0.385l-0.015,-0.01c0.207,0.195 0.555,0.129 0.729,0.388l-0.026,-0.024c0.131,0.097 0.26,0.194 0.388,0.293c0.067,0.072 0.15,0.1 0.247,0.084c0.198,0.048 0.34,0.183 0.487,0.311l0.011,0.006c0.175,0.235 0.519,0.158 0.702,0.38l-0.009,-0.005c0.199,0.207 0.546,0.139 0.722,0.387l-0.02,-0.014c0.215,0.186 0.564,0.12 0.733,0.391l-0.026,-0.028c0.159,0.072 0.264,0.219 0.411,0.309l0.025,0.012c0.159,0.252 0.503,0.168 0.687,0.377l0,-0.001c0.189,0.219 0.534,0.148 0.714,0.384l-0.016,-0.01c0.208,0.195 0.556,0.129 0.729,0.389l-0.025,-0.024c0.131,0.096 0.26,0.193 0.388,0.293c0.067,0.072 0.15,0.1 0.247,0.083c0.198,0.048 0.34,0.183 0.487,0.311l0.011,0.005c0.175,0.236 0.52,0.159 0.702,0.382l-0.01,-0.006c0.2,0.207 0.547,0.139 0.724,0.387l-0.02,-0.014c0.215,0.186 0.563,0.12 0.731,0.391l-0.026,-0.028c0.161,0.072 0.265,0.219 0.412,0.309l0.024,0.012c0.16,0.252 0.505,0.168 0.688,0.378l-0.002,-0.002c0.19,0.219 0.536,0.148 0.716,0.384l-0.015,-0.01c0.207,0.195 0.555,0.129 0.728,0.39l-0.026,-0.025c0.132,0.096 0.261,0.194 0.389,0.295c0.068,0.071 0.15,0.098 0.247,0.081c0.198,0.048 0.34,0.183 0.487,0.311l0.011,0.006c0.175,0.235 0.52,0.158 0.702,0.382l-0.011,-0.006c0.201,0.205 0.548,0.138 0.725,0.386l-0.021,-0.014c0.216,0.186 0.564,0.12 0.732,0.392l-0.026,-0.029c0.161,0.072 0.265,0.219 0.413,0.309l0.022,0.012c0.161,0.251 0.506,0.168 0.689,0.378l-0.002,-0.002c0.19,0.219 0.536,0.148 0.716,0.385l-0.016,-0.011c0.208,0.195 0.556,0.129 0.729,0.39l-0.026,-0.025c0.132,0.096 0.262,0.195 0.39,0.295c0.066,0.072 0.147,0.099 0.243,0.082c0.199,0.045 0.342,0.182 0.49,0.31l0.011,0.006c0.174,0.235 0.521,0.157 0.702,0.383l-0.011,-0.007c0.201,0.204 0.547,0.138 0.725,0.387l-0.021,-0.015c0.215,0.186 0.564,0.12 0.732,0.392l-0.026,-0.029c0.161,0.072 0.266,0.219 0.411,0.31l0.023,0.011c0.162,0.251 0.506,0.168 0.69,0.378l-0.001,-0.002c0.19,0.219 0.536,0.148 0.715,0.386l-0.018,-0.011c0.21,0.194 0.558,0.128 0.731,0.389l-0.026,-0.025c0.132,0.096 0.261,0.194 0.39,0.296c0.065,0.071 0.146,0.098 0.242,0.081c0.2,0.045 0.344,0.182 0.491,0.311l0.01,0.005c0.176,0.235 0.522,0.157 0.703,0.383l-0.012,-0.007c0.202,0.204 0.548,0.137 0.725,0.387l-0.02,-0.015c0.215,0.186 0.564,0.12 0.732,0.392l-0.027,-0.029c0.162,0.073 0.267,0.219 0.412,0.312l0.02,0.011c0.165,0.247 0.508,0.166 0.693,0.376l-0.002,-0.002c0.19,0.219 0.537,0.147 0.714,0.387l-0.016,-0.011c0.21,0.192 0.557,0.127 0.731,0.388l-0.026,-0.025c0.132,0.096 0.262,0.195 0.39,0.295c0.066,0.072 0.146,0.099 0.241,0.082c0.202,0.045 0.344,0.182 0.492,0.311l0.009,0.006c0.177,0.234 0.523,0.156 0.704,0.383l-0.012,-0.008c0.202,0.204 0.549,0.137 0.725,0.388l-0.02,-0.014c0.216,0.183 0.564,0.118 0.732,0.391l-0.026,-0.03c0.161,0.072 0.266,0.219 0.412,0.312l0.019,0.011c0.165,0.247 0.508,0.166 0.693,0.376l-0.002,-0.002c0.19,0.219 0.537,0.147 0.715,0.387l-0.017,-0.011c0.21,0.192 0.557,0.127 0.73,0.388l-0.025,-0.025c0.132,0.096 0.262,0.195 0.39,0.297c0.063,0.072 0.142,0.099 0.236,0.081c0.208,0.04 0.348,0.185 0.488,0.327l0,0.001c0.08,0.067 0.107,0.136 0.083,0.207c-0.024,0.07 -0.049,0.106 -0.075,0.106c-0.779,-0.104 -1.368,0.343 -1.98,0.701c-7.784,4.561 -15.564,9.128 -23.346,13.69c-4.587,2.689 -9.177,5.372 -13.762,8.063c-0.306,0.179 -0.58,0.412 -0.869,0.621c-0.094,0.105 -0.2,0.117 -0.317,0.038" style="fill:#779ab8;fill-rule:nonzero;"/><path d="M248.744,154.41c0.031,2.63 0.084,5.261 0.088,7.891c0.02,11.848 0.027,23.696 0.03,35.544c0,0.649 0.123,1.318 -0.179,1.944c-2.581,-1.368 -5.178,-2.711 -7.741,-4.113c-2.724,-1.491 -5.412,-3.047 -8.124,-4.562c-4.225,-2.36 -8.455,-4.71 -12.685,-7.061c-3.343,-1.857 -6.687,-3.71 -10.034,-5.56c-0.731,-0.403 -1.481,-0.773 -2.029,-1.433c2.608,-1.803 5.469,-3.168 8.223,-4.714c10.419,-5.845 20.866,-11.641 31.306,-17.449c0.36,-0.2 0.762,-0.326 1.145,-0.487" style="fill:#779ab8;fill-rule:nonzero;"/><path d="M136.095,52.881c-0.225,0.009 -0.354,-0.087 -0.357,-0.324c0.224,-0.008 0.318,0.128 0.357,0.324" style="fill:#779ab8;fill-rule:nonzero;"/><path d="M62.305,93.985c0.009,0.719 0.026,1.438 0.026,2.157c0.002,26.195 0.001,52.389 0.005,78.584c0,0.777 0.053,1.554 0.081,2.331c-1.824,-0.494 -3.309,-1.662 -4.923,-2.553c-5.181,-2.858 -10.301,-5.829 -15.439,-8.765c-4.827,-2.758 -9.617,-5.584 -14.486,-8.265c-2.085,-1.149 -4.083,-2.473 -6.297,-3.386c-0.02,-1.197 -0.055,-2.394 -0.055,-3.591c-0.004,-25.627 -0.003,-51.254 -0.001,-76.88c0.001,-0.777 0.035,-1.555 0.053,-2.333c1.278,-0.231 2.114,0.711 3.081,1.23c2.891,1.55 5.73,3.197 8.594,4.798c4.062,2.27 8.125,4.538 12.195,6.795c2.609,1.447 5.239,2.859 7.847,4.309c2.867,1.594 5.72,3.216 8.582,4.818c0.326,0.182 0.585,0.408 0.737,0.751" style="fill:#79a2c2;fill-rule:nonzero;"/><path d="M62.964,177.477c12.563,7.09 25.127,14.18 37.691,21.268c11.469,6.471 22.939,12.94 34.409,19.411c0.345,0.663 0.337,1.379 0.334,2.101c-0.046,8.675 0.048,17.354 -0.174,26.027c-0.15,5.861 -0.042,11.723 -0.219,17.582c-0.222,-0.013 -0.446,-0.024 -0.668,-0.037c-0.14,-0.284 -0.402,-0.36 -0.685,-0.399c-0.083,-0.2 -0.242,-0.268 -0.446,-0.259c-0.16,-0.258 -0.394,-0.382 -0.694,-0.392c-0.144,-0.283 -0.4,-0.37 -0.691,-0.394c-0.14,-0.284 -0.402,-0.36 -0.684,-0.401c-0.085,-0.197 -0.245,-0.265 -0.449,-0.256c-0.158,-0.261 -0.395,-0.381 -0.694,-0.392c-0.143,-0.284 -0.401,-0.368 -0.691,-0.393c-0.137,-0.28 -0.397,-0.361 -0.674,-0.413c-0.089,-0.194 -0.249,-0.263 -0.452,-0.253c-0.152,-0.271 -0.399,-0.376 -0.696,-0.39c-0.142,-0.286 -0.402,-0.364 -0.692,-0.392c-0.141,-0.282 -0.404,-0.356 -0.685,-0.399c-0.089,-0.196 -0.25,-0.263 -0.453,-0.251c-0.157,-0.265 -0.397,-0.38 -0.696,-0.39c-0.145,-0.283 -0.402,-0.367 -0.693,-0.391c-0.141,-0.285 -0.404,-0.359 -0.687,-0.398c-0.085,-0.198 -0.244,-0.266 -0.449,-0.255c-0.162,-0.257 -0.397,-0.383 -0.697,-0.388c-0.147,-0.281 -0.401,-0.371 -0.693,-0.392c-0.142,-0.285 -0.405,-0.36 -0.689,-0.395c-0.081,-0.199 -0.239,-0.268 -0.442,-0.262c-0.171,-0.244 -0.4,-0.381 -0.703,-0.384c-0.149,-0.276 -0.399,-0.372 -0.694,-0.39c-0.141,-0.286 -0.402,-0.363 -0.689,-0.394c-0.077,-0.2 -0.233,-0.269 -0.434,-0.271c-0.183,-0.227 -0.404,-0.38 -0.709,-0.378c-0.152,-0.272 -0.398,-0.375 -0.694,-0.39c-0.143,-0.286 -0.403,-0.364 -0.693,-0.392c-0.141,-0.282 -0.404,-0.356 -0.685,-0.399c-0.089,-0.196 -0.25,-0.262 -0.453,-0.252c-0.155,-0.266 -0.394,-0.381 -0.693,-0.392c-0.144,-0.285 -0.402,-0.368 -0.692,-0.393c-0.142,-0.282 -0.405,-0.357 -0.687,-0.398c-0.087,-0.196 -0.247,-0.264 -0.451,-0.253c-0.159,-0.261 -0.396,-0.381 -0.696,-0.39c-0.145,-0.282 -0.402,-0.368 -0.693,-0.39c-0.141,-0.285 -0.404,-0.36 -0.688,-0.396c-0.083,-0.199 -0.242,-0.267 -0.446,-0.259c-0.166,-0.251 -0.398,-0.383 -0.7,-0.386c-0.147,-0.279 -0.4,-0.372 -0.693,-0.392c-0.142,-0.285 -0.404,-0.361 -0.689,-0.394c-0.079,-0.199 -0.237,-0.268 -0.438,-0.267c-0.177,-0.234 -0.402,-0.381 -0.706,-0.381c-0.149,-0.275 -0.398,-0.374 -0.694,-0.39c-0.142,-0.285 -0.403,-0.363 -0.691,-0.393c-0.144,-0.28 -0.407,-0.354 -0.686,-0.399c-0.091,-0.195 -0.251,-0.261 -0.454,-0.25c-0.155,-0.269 -0.398,-0.377 -0.696,-0.389c-0.144,-0.285 -0.402,-0.368 -0.692,-0.393c-0.142,-0.282 -0.405,-0.357 -0.687,-0.398c-0.087,-0.196 -0.247,-0.264 -0.451,-0.254c-0.159,-0.26 -0.396,-0.38 -0.696,-0.389c-0.145,-0.282 -0.402,-0.367 -0.693,-0.391c-0.141,-0.285 -0.404,-0.359 -0.688,-0.395c-0.083,-0.2 -0.242,-0.267 -0.446,-0.259c-0.166,-0.251 -0.398,-0.382 -0.699,-0.386c-0.148,-0.279 -0.401,-0.372 -0.694,-0.392c-0.142,-0.285 -0.404,-0.361 -0.689,-0.394c-0.079,-0.199 -0.237,-0.269 -0.438,-0.267c-0.177,-0.234 -0.402,-0.381 -0.706,-0.38c-0.149,-0.276 -0.398,-0.374 -0.694,-0.391c-0.142,-0.285 -0.403,-0.363 -0.691,-0.393c-0.144,-0.279 -0.407,-0.354 -0.686,-0.4c-0.091,-0.194 -0.251,-0.26 -0.454,-0.249c-0.155,-0.269 -0.398,-0.378 -0.696,-0.389c-0.144,-0.285 -0.402,-0.367 -0.692,-0.393c-0.142,-0.283 -0.405,-0.356 -0.687,-0.398c-0.086,-0.197 -0.247,-0.264 -0.45,-0.255c-0.156,-0.264 -0.394,-0.382 -0.694,-0.391c-0.145,-0.282 -0.402,-0.367 -0.693,-0.392c-0.141,-0.284 -0.404,-0.358 -0.687,-0.397c-0.084,-0.198 -0.244,-0.265 -0.449,-0.256c-0.162,-0.257 -0.397,-0.382 -0.697,-0.387c-0.147,-0.281 -0.401,-0.371 -0.693,-0.392c-0.142,-0.285 -0.405,-0.359 -0.689,-0.395c-0.081,-0.2 -0.239,-0.269 -0.442,-0.262c-0.171,-0.244 -0.4,-0.381 -0.703,-0.384c-0.149,-0.277 -0.399,-0.373 -0.694,-0.39c-0.141,-0.287 -0.402,-0.363 -0.689,-0.394c-0.076,-0.2 -0.233,-0.27 -0.434,-0.272c-0.183,-0.225 -0.404,-0.38 -0.708,-0.377c-0.153,-0.272 -0.399,-0.376 -0.696,-0.39c-0.142,-0.286 -0.402,-0.365 -0.691,-0.392c-0.142,-0.283 -0.405,-0.356 -0.686,-0.4c-0.09,-0.196 -0.25,-0.261 -0.453,-0.251c-0.157,-0.263 -0.397,-0.38 -0.696,-0.389c-0.145,-0.282 -0.402,-0.368 -0.693,-0.392c-0.141,-0.284 -0.404,-0.358 -0.687,-0.397c-0.085,-0.198 -0.245,-0.266 -0.449,-0.255c-0.161,-0.258 -0.396,-0.383 -0.697,-0.389c-0.147,-0.28 -0.401,-0.37 -0.693,-0.391c-0.142,-0.285 -0.405,-0.359 -0.689,-0.395c-0.081,-0.2 -0.239,-0.269 -0.442,-0.262c-0.171,-0.244 -0.4,-0.381 -0.703,-0.384c-0.149,-0.277 -0.399,-0.373 -0.694,-0.39c-0.141,-0.286 -0.402,-0.363 -0.689,-0.395c-0.077,-0.199 -0.233,-0.269 -0.434,-0.271c-0.183,-0.226 -0.404,-0.38 -0.709,-0.377c-0.152,-0.272 -0.398,-0.376 -0.694,-0.389c-0.143,-0.287 -0.403,-0.366 -0.693,-0.393c-0.141,-0.283 -0.404,-0.356 -0.685,-0.399c-0.089,-0.196 -0.25,-0.263 -0.453,-0.251c-0.157,-0.265 -0.397,-0.38 -0.696,-0.39c-0.144,-0.282 -0.402,-0.368 -0.693,-0.392c-0.141,-0.284 -0.404,-0.358 -0.687,-0.397c-0.084,-0.198 -0.244,-0.267 -0.448,-0.257c-0.158,-0.261 -0.395,-0.382 -0.695,-0.391c-0.145,-0.282 -0.402,-0.368 -0.693,-0.39c-0.141,-0.286 -0.404,-0.36 -0.688,-0.396c-0.083,-0.2 -0.242,-0.268 -0.446,-0.259c-0.166,-0.251 -0.398,-0.383 -0.699,-0.387c-0.153,-0.278 -0.401,-0.379 -0.703,-0.38c-0.116,-0.123 -0.232,-0.246 -0.347,-0.369c0.006,-4.005 -0.002,-8.008 0.022,-12.012c0.013,-2.028 -0.061,-4.056 0.192,-6.084c0.208,-1.662 -0.177,-3.33 -0.189,-4.995c-0.052,-6.873 -0.037,-13.746 -0.019,-20.619c0.002,-0.576 -0.372,-1.383 0.622,-1.61" style="fill:#2d294c;fill-rule:nonzero;"/></g></svg>