<?xml version="1.0" encoding="UTF-8" standalone="no"?><!DOCTYPE svg PUBLIC "-//W3C//DTD SVG 1.1//EN" "http://www.w3.org/Graphics/SVG/1.1/DTD/svg11.dtd"><svg width="100%" height="100%" viewBox="0 0 636 636" version="1.1" xmlns="http://www.w3.org/2000/svg" xmlns:xlink="http://www.w3.org/1999/xlink" xml:space="preserve" xmlns:serif="http://www.serif.com/" style="fill-rule:evenodd;clip-rule:evenodd;stroke-linejoin:round;stroke-miterlimit:2;"><g><path d="M615.5,127.688l0.001,0c9.599,0 17.499,7.899 17.499,17.499c0,0 0,0 0,0.001l0,345.624c0,9.601 -7.9,17.5 -17.5,17.5l-17.5,0c-9.6,0 -17.5,-7.899 -17.5,-17.5l0,-106.384l-116.089,29.023c-31.238,47.817 -85.033,79.549 -146.411,79.549c-61.378,0 -115.173,-31.732 -146.411,-79.549l-116.089,-29.023l0,106.384c0,9.601 -7.9,17.5 -17.5,17.5l-17.5,0c-9.6,0 -17.5,-7.899 -17.5,-17.5l0,-345.624c0,-0.001 0,-0.001 0,-0.001c0,-9.6 7.9,-17.499 17.499,-17.499l17.502,0c9.599,0 17.499,7.899 17.499,17.499l0,106.385l116.089,-29.023c31.238,-47.817 85.033,-79.549 146.411,-79.549c61.378,0 115.173,31.732 146.411,79.549l116.089,29.023l0,-106.385c0,-9.6 7.9,-17.499 17.499,-17.499l17.501,0Zm-315,69.581c-20.141,2.873 -39.237,10.77 -55.525,22.96l16.907,16.907c-9.622,6.693 -18.048,15.118 -24.746,24.746l-16.019,38.618c-2.073,11.526 -2.073,23.474 0,35l-23.848,0c2.873,20.141 10.771,39.237 22.962,55.523l16.905,-16.905c3.135,3.135 15.1,18.036 24.746,24.746l-16.905,16.905c16.287,12.191 35.383,20.089 55.523,22.962l0,-23.848c-1.364,-0.245 10.265,1.517 17.5,1.555c5.856,0.03 11.736,-0.518 17.5,-1.555c0,0 14.15,-2.543 0,0l0,23.848c20.141,-2.872 39.238,-10.769 55.525,-22.96l-16.455,-17.132c9.646,-6.71 17.584,-14.875 24.294,-24.521l16.019,-38.618c2.073,-11.526 2.073,-23.474 0,-35l23.848,0c-2.873,-20.14 -10.77,-39.237 -22.96,-55.525l-16.907,16.907c-5.348,-7.688 -15.1,-18.036 -24.746,-24.746l16.907,-16.907c-16.288,-12.19 -35.385,-20.087 -55.525,-22.96l0,23.848c1.364,0.245 -10.265,-1.517 -17.5,-1.554c-5.856,-0.031 -11.736,0.517 -17.5,1.554l0,-23.848Zm98.364,176.849l16.905,16.905c12.192,-16.287 20.089,-35.383 22.962,-55.523l-23.848,0m-268.348,17.581c-4.713,-23.15 -4.713,-47.013 0,-70.162l-82.285,20.572l0,29.018l82.285,20.572Zm425.215,-20.572l-82.285,20.572c4.713,-23.149 4.713,-47.013 0,-70.162l82.285,20.572l0,29.018Zm-350.633,-32.009l16.019,-38.618l-16.907,-16.907c-12.19,16.288 -20.087,35.385 -22.96,55.525l23.848,0" style="fill:#046080;"/><path d="M580.5,251.572l0,132.856l-116.089,29.023c-31.238,47.817 -85.033,79.549 -146.411,79.549c-61.378,0 -115.173,-31.732 -146.411,-79.549l-116.089,-29.023l0,-132.856l116.089,-29.023c31.238,-47.817 85.033,-79.549 146.411,-79.549c61.378,0 115.173,31.732 146.411,79.549l116.089,29.023Zm-280,-54.303c-20.141,2.873 -39.237,10.77 -55.525,22.96l16.907,16.907c-9.622,6.693 -18.048,15.118 -24.746,24.746l-16.019,38.618c-2.073,11.526 -2.073,23.474 0,35l-23.848,0c2.873,20.141 10.771,39.237 22.962,55.523l16.905,-16.905c3.135,3.135 15.1,18.036 24.746,24.746l-16.905,16.905c16.287,12.191 35.383,20.089 55.523,22.962l0,-23.848c-1.364,-0.245 10.265,1.517 17.5,1.555c5.856,0.03 11.736,-0.518 17.5,-1.555c0,0 14.15,-2.543 0,0l0,23.848c20.141,-2.872 39.238,-10.769 55.525,-22.96l-16.455,-17.132c9.646,-6.71 17.584,-14.875 24.294,-24.521l16.019,-38.618c2.073,-11.526 2.073,-23.474 0,-35l23.848,0c-2.873,-20.14 -10.77,-39.237 -22.96,-55.525l-16.907,16.907c-5.348,-7.688 -15.1,-18.036 -24.746,-24.746l16.907,-16.907c-16.288,-12.19 -35.385,-20.087 -55.525,-22.96l0,23.848c1.364,0.245 -10.265,-1.517 -17.5,-1.554c-5.856,-0.031 -11.736,0.517 -17.5,1.554l0,-23.848Zm98.364,176.849l16.905,16.905c12.192,-16.287 20.089,-35.383 22.962,-55.523l-23.848,0m-268.348,17.581c-4.713,-23.15 -4.713,-47.013 0,-70.162l-82.285,20.572l0,29.018l82.285,20.572Zm425.215,-20.572l-82.285,20.572c4.713,-23.149 4.713,-47.013 0,-70.162l82.285,20.572l0,29.018Zm-350.633,-32.009l16.019,-38.618l-16.907,-16.907c-12.19,16.288 -20.087,35.385 -22.96,55.525l23.848,0" style="fill:#5be8cd;"/><circle cx="318" cy="318" r="185.937" style="fill:#ff7761;"/><circle cx="318" cy="318" r="136.719" style="fill:#230f29;"/><path d="M464.411,222.549l0,190.902c-31.238,47.817 -85.033,79.549 -146.411,79.549c-61.378,0 -115.173,-31.732 -146.411,-79.549l0,-190.902c31.238,-47.817 85.033,-79.549 146.411,-79.549c61.378,0 115.173,31.732 146.411,79.549Zm-163.911,-25.28c-20.141,2.873 -39.237,10.77 -55.525,22.96l16.907,16.907c-9.622,6.693 -18.048,15.118 -24.746,24.746l-16.019,38.618c-2.073,11.526 -2.073,23.474 0,35l-23.848,0c2.873,20.141 10.771,39.237 22.962,55.523l16.905,-16.905c3.135,3.135 15.1,18.036 24.746,24.746l-16.905,16.905c16.287,12.191 35.383,20.089 55.523,22.962l0,-23.848c-1.364,-0.245 10.265,1.517 17.5,1.555c5.856,0.03 11.736,-0.518 17.5,-1.555c0,0 14.15,-2.543 0,0l0,23.848c20.141,-2.872 39.238,-10.769 55.525,-22.96l-16.455,-17.132c9.646,-6.71 17.584,-14.875 24.294,-24.521l16.019,-38.618c2.073,-11.526 2.073,-23.474 0,-35l23.848,0c-2.873,-20.14 -10.77,-39.237 -22.96,-55.525l-16.907,16.907c-5.348,-7.688 -15.1,-18.036 -24.746,-24.746l16.907,-16.907c-16.288,-12.19 -35.385,-20.087 -55.525,-22.96l0,23.848c1.364,0.245 -10.265,-1.517 -17.5,-1.554c-5.856,-0.031 -11.736,0.517 -17.5,1.554l0,-23.848Zm98.364,176.849l16.905,16.905c12.192,-16.287 20.089,-35.383 22.962,-55.523l-23.848,0m-193.766,-35l16.019,-38.618l-16.907,-16.907c-12.19,16.288 -20.087,35.385 -22.96,55.525l23.848,0" style="fill:#ff7761;"/><g><path d="M335.547,254.818c0,-4.87 -3.954,-8.824 -8.824,-8.824l-17.649,0c-4.87,0 -8.824,3.954 -8.824,8.824l0,77.788c0,4.87 3.954,8.824 8.824,8.824l17.649,0c4.87,0 8.824,-3.954 8.824,-8.824l0,-77.788Z" style="fill:#ffdc7b;"/><path d="M344.735,369.591c3.934,2.871 9.459,2.009 12.331,-1.925l10.405,-14.254c2.872,-3.934 2.01,-9.459 -1.924,-12.33l-40.784,-29.774c-3.934,-2.871 -9.459,-2.009 -12.33,1.925l-10.406,14.254c-2.872,3.934 -2.01,9.459 1.924,12.33l40.784,29.774Z" style="fill:#ffdc7b;"/></g></g></svg>