<?xml version="1.0" standalone="no"?>
<!DOCTYPE svg PUBLIC "-//W3C//DTD SVG 20010904//EN"
 "http://www.w3.org/TR/2001/REC-SVG-20010904/DTD/svg10.dtd">
<svg version="1.0" xmlns="http://www.w3.org/2000/svg"
 width="700.000000pt" height="700.000000pt" viewBox="0 0 700.000000 700.000000"
 preserveAspectRatio="xMidYMid meet">
<metadata>
Created by potrace 1.11, written by Peter Selinger 2001-2013
</metadata>
<g transform="translate(0.000000,700.000000) scale(0.100000,-0.100000)"
fill="#000000" stroke="none">
<path d="M3430 6806 c-30 -18 -86 -50 -125 -71 -114 -63 -139 -77 -235 -132
-50 -29 -92 -53 -94 -53 -3 0 -39 -20 -80 -45 -42 -25 -81 -45 -86 -45 -6 0
-10 -4 -10 -10 0 -5 -5 -10 -10 -10 -6 0 -93 -47 -193 -104 -409 -232 -562
-319 -635 -358 -42 -23 -78 -45 -80 -50 -2 -4 -8 -8 -13 -8 -8 0 -194 -103
-369 -203 -100 -58 -448 -254 -701 -396 -113 -64 -215 -123 -227 -131 l-21
-15 -3 -1672 c-1 -920 0 -1674 3 -1677 8 -8 160 -96 165 -96 3 0 18 -8 32 -19
15 -10 50 -31 77 -45 28 -15 73 -41 100 -57 28 -16 59 -34 70 -39 11 -6 38
-21 60 -33 56 -33 84 -49 325 -187 116 -67 219 -124 228 -128 18 -6 178 -96
297 -165 39 -23 73 -42 77 -42 4 0 13 -6 20 -13 6 -6 15 -12 19 -12 6 0 349
-194 389 -220 8 -5 42 -23 75 -41 33 -17 80 -43 105 -58 25 -16 104 -61 175
-101 72 -40 256 -145 410 -233 293 -167 345 -194 345 -177 0 5 4 10 9 10 5 0
47 23 94 50 47 28 88 50 91 50 4 0 23 11 44 23 20 13 60 37 87 52 100 57 191
108 255 142 36 20 72 42 81 49 8 8 19 14 22 14 11 0 192 104 195 112 2 5 8 8
14 8 5 0 112 58 236 128 125 71 254 144 287 162 33 18 74 41 90 51 17 10 53
30 80 45 28 14 62 35 77 45 14 11 29 19 32 19 4 0 88 47 189 104 281 159 547
310 597 338 106 59 151 84 250 141 58 33 126 72 153 86 26 14 47 33 47 41 5
455 4 3322 -1 3338 -5 12 -13 22 -17 22 -5 0 -72 35 -148 79 -77 43 -272 153
-434 243 -162 91 -317 178 -345 193 -27 16 -178 100 -335 188 -157 88 -289
163 -295 167 -5 4 -32 20 -60 36 -27 15 -64 35 -82 45 -18 10 -63 35 -100 55
-37 20 -75 42 -83 49 -8 7 -76 46 -150 87 -74 42 -153 86 -175 99 -22 12 -107
60 -190 106 -82 45 -157 87 -165 93 -8 5 -40 23 -70 40 -30 16 -66 36 -80 44
-82 48 -223 126 -228 126 -4 -1 -32 -16 -62 -34z m355 -1342 c265 -151 547
-314 1149 -660 235 -135 405 -239 415 -253 13 -21 15 -76 16 -429 0 -222 -3
-409 -7 -415 -7 -12 -40 2 -148 64 -50 28 -974 548 -1080 607 -136 76 -362
202 -405 227 -27 16 -75 42 -105 58 -30 16 -64 36 -75 43 -23 17 -51 18 -60 4
-12 -19 -8 -1206 4 -1228 11 -20 35 -37 116 -82 22 -13 96 -54 165 -93 69 -39
154 -87 190 -107 112 -63 1096 -618 1280 -722 58 -33 108 -63 112 -67 4 -3 -9
-15 -30 -26 -20 -11 -86 -49 -147 -84 -60 -35 -168 -96 -240 -136 -71 -40
-146 -82 -165 -94 -19 -11 -53 -30 -75 -42 -22 -12 -85 -48 -140 -79 -55 -32
-122 -70 -150 -85 -27 -15 -111 -63 -185 -105 -74 -42 -155 -88 -180 -102 -25
-14 -157 -89 -295 -167 l-250 -142 -35 19 c-19 11 -67 38 -107 60 -84 49 -121
70 -223 127 -41 23 -201 113 -355 200 -154 87 -296 167 -315 178 -19 10 -141
79 -270 152 -129 72 -255 143 -280 157 -25 14 -89 51 -144 82 -54 31 -101 56
-105 56 -4 0 -15 10 -26 22 -19 22 -19 51 -20 1090 0 588 2 1068 5 1068 3 0
55 28 115 62 61 33 128 71 150 83 22 12 146 82 275 155 129 73 260 147 290
163 30 16 60 33 65 37 6 4 37 22 70 40 108 60 147 82 365 205 118 67 293 165
388 219 94 53 172 102 172 108 0 5 8 1 18 -10 9 -11 125 -82 257 -158z"/>
</g>
</svg>
