<?xml version="1.0" standalone="no"?>
<!DOCTYPE svg PUBLIC "-//W3C//DTD SVG 20010904//EN"
 "http://www.w3.org/TR/2001/REC-SVG-20010904/DTD/svg10.dtd">
<svg version="1.0" xmlns="http://www.w3.org/2000/svg"
 width="1080.000000pt" height="1080.000000pt" viewBox="0 0 1080.000000 1080.000000"
 preserveAspectRatio="xMidYMid meet">
<metadata>
Created by potrace 1.11, written by Peter Selinger 2001-2013
</metadata>
<g transform="translate(0.000000,1080.000000) scale(0.100000,-0.100000)"
fill="#000000" stroke="none">
<path d="M5128 10795 c-2 -2 -46 -6 -99 -9 -104 -7 -185 -14 -237 -21 -18 -3
-54 -7 -80 -10 -26 -3 -60 -7 -77 -10 -16 -2 -48 -7 -70 -10 -44 -7 -53 -8
-170 -30 -147 -27 -303 -63 -455 -106 -137 -39 -405 -128 -439 -145 -14 -8
-31 -14 -36 -14 -10 0 -166 -65 -300 -125 -57 -25 -289 -141 -365 -181 -19
-11 -36 -22 -38 -26 -2 -5 -8 -8 -12 -8 -29 0 -500 -307 -610 -397 -8 -7 -51
-40 -95 -74 -264 -206 -678 -616 -845 -838 -14 -18 -40 -51 -59 -74 -69 -85
-291 -399 -291 -412 0 -2 -17 -30 -38 -62 -95 -143 -251 -437 -347 -653 -184
-412 -337 -928 -400 -1355 -18 -123 -26 -186 -31 -235 -3 -30 -7 -66 -9 -80
-19 -115 -26 -719 -11 -910 5 -52 9 -113 11 -135 2 -22 6 -53 8 -70 3 -16 8
-57 12 -90 3 -33 13 -103 22 -155 8 -52 17 -108 20 -125 26 -166 105 -477 180
-710 102 -315 296 -755 435 -984 21 -34 38 -65 38 -67 0 -2 23 -41 52 -87 248
-396 463 -669 773 -982 418 -421 850 -738 1380 -1014 120 -62 429 -201 448
-201 7 0 17 -4 22 -9 19 -17 462 -168 545 -186 8 -2 40 -10 70 -18 57 -17 353
-82 405 -90 173 -27 237 -37 275 -42 25 -3 59 -7 75 -10 17 -3 57 -7 91 -10
33 -2 100 -8 150 -12 49 -4 215 -7 369 -7 319 0 479 9 685 39 14 2 48 6 75 10
60 7 93 12 250 40 248 43 744 182 892 250 17 8 37 15 45 15 8 0 18 4 23 8 6 5
33 17 60 27 28 10 73 28 100 41 28 12 93 42 145 66 102 47 307 151 380 194
267 154 505 316 715 483 70 55 85 68 225 191 77 67 332 319 408 403 62 68 173
198 202 236 23 30 72 92 104 131 29 37 206 288 218 311 7 13 27 44 44 69 27
39 87 141 174 295 87 154 249 503 311 675 89 242 197 605 222 750 3 14 10 43
15 65 6 22 13 58 17 80 3 23 8 52 10 65 9 43 34 213 40 262 3 26 7 62 10 80
28 196 40 738 22 968 -4 52 -10 120 -12 150 -5 62 -14 144 -20 180 -2 14 -7
45 -10 70 -58 449 -227 1039 -406 1418 -21 46 -39 86 -39 89 0 3 -35 75 -79
162 -161 320 -338 599 -580 911 -62 80 -82 104 -219 260 -67 76 -335 345 -408
410 -53 47 -164 143 -189 163 -206 165 -334 258 -546 393 -81 52 -150 94 -153
94 -3 0 -35 18 -72 40 -59 37 -396 210 -407 210 -3 0 -43 17 -89 38 -45 21
-99 44 -118 52 -19 7 -53 20 -75 30 -83 37 -455 160 -529 175 -10 3 -33 9 -50
14 -25 8 -179 45 -281 67 -60 13 -369 64 -419 69 -32 3 -62 7 -65 10 -4 2 -54
6 -111 10 -58 4 -116 9 -130 12 -25 5 -647 12 -652 8z"/>
</g>
</svg>
