<?xml version="1.0" standalone="no"?>
<!DOCTYPE svg PUBLIC "-//W3C//DTD SVG 20010904//EN"
 "http://www.w3.org/TR/2001/REC-SVG-20010904/DTD/svg10.dtd">
<svg version="1.0" xmlns="http://www.w3.org/2000/svg"
 width="512.000000pt" height="512.000000pt" viewBox="0 0 512.000000 512.000000"
 preserveAspectRatio="xMidYMid meet">
<metadata>
Created by potrace 1.11, written by Peter Selinger 2001-2013
</metadata>
<g transform="translate(0.000000,512.000000) scale(0.100000,-0.100000)"
fill="#000000" stroke="none">
<path d="M1034 3509 c-62 -17 -59 24 -59 -955 l0 -894 28 -27 c25 -25 35 -28
101 -29 63 -1 78 2 103 21 l28 23 3 287 c3 265 4 287 20 283 9 -2 123 -31 254
-63 l236 -59 40 -60 c64 -97 165 -196 266 -261 326 -208 748 -196 1056 31 82
60 171 152 222 230 l40 61 237 58 c130 32 244 61 254 63 16 4 17 -14 17 -267
0 -298 4 -320 57 -339 16 -5 56 -9 91 -8 53 1 66 5 89 29 l28 27 0 894 c0 942
0 933 -44 952 -29 11 -144 13 -165 2 -54 -27 -55 -32 -56 -327 0 -151 -2 -277
-4 -279 -3 -2 -117 25 -254 59 -235 59 -251 65 -267 91 -67 114 -212 252 -338
322 -238 133 -532 155 -786 60 -60 -23 -189 -89 -201 -103 -3 -3 -23 -19 -45
-36 -62 -46 -146 -135 -195 -206 l-45 -66 -245 -61 c-135 -34 -249 -62 -253
-62 -4 0 -7 122 -7 270 0 297 -4 318 -57 338 -33 12 -105 13 -149 1z m597
-869 c-7 -69 -6 -123 3 -208 3 -27 1 -32 -13 -28 -9 3 -83 22 -166 42 -82 20
-154 40 -159 44 -5 5 -10 39 -10 75 l-2 65 36 10 c70 19 315 78 316 76 1 0 -1
-35 -5 -76z m2009 40 c69 -17 141 -35 160 -40 l35 -9 0 -71 0 -71 -35 -9 c-19
-5 -91 -23 -160 -40 -69 -17 -133 -33 -142 -36 -13 -4 -16 0 -12 18 8 36 7
252 -1 277 -6 19 -4 22 12 17 10 -3 74 -19 143 -36z"/>
</g>
</svg>
